<?xml version="1.0" standalone="no"?>
<!DOCTYPE svg PUBLIC "-//W3C//DTD SVG 20010904//EN"
 "http://www.w3.org/TR/2001/REC-SVG-20010904/DTD/svg10.dtd">
<svg version="1.0" xmlns="http://www.w3.org/2000/svg"
 width="371.000000pt" height="338.000000pt" viewBox="0 0 371.000000 338.000000"
 preserveAspectRatio="xMidYMid meet">

<g transform="translate(0.000000,338.000000) scale(0.100000,-0.100000)"
fill="#000000" stroke="none">
<path d="M1090 3030 c0 -13 37 -50 50 -50 10 0 3 27 -13 48 -11 14 -37 16 -37
2z"/>
<path d="M1253 2944 l-28 -26 35 23 c46 29 45 29 32 29 -6 0 -24 -12 -39 -26z"/>
<path d="M2210 2805 c7 -8 17 -15 22 -15 6 0 5 7 -2 15 -7 8 -17 15 -22 15 -6
0 -5 -7 2 -15z"/>
<path d="M864 2794 c3 -9 6 -22 6 -29 0 -8 7 -21 16 -29 21 -21 40 -10 21 12
-32 38 -26 42 20 16 l48 -27 33 20 34 21 -34 10 c-18 6 -59 13 -91 15 -50 5
-58 3 -53 -9z"/>
<path d="M2590 2781 c5 -11 10 -31 10 -45 0 -20 5 -26 21 -26 19 0 21 4 15 32
-7 37 -23 58 -43 58 -10 0 -11 -4 -3 -19z"/>
<path d="M2240 2761 c0 -12 29 -35 36 -28 11 10 -5 37 -21 37 -8 0 -15 -4 -15
-9z"/>
<path d="M1560 2718 c-67 -45 -76 -118 -20 -158 96 -68 234 58 158 144 -34 38
-93 44 -138 14z"/>
<path d="M930 2720 c0 -5 4 -10 9 -10 6 0 13 5 16 10 3 6 -1 10 -9 10 -9 0
-16 -4 -16 -10z"/>
<path d="M2437 2449 c12 -24 14 -49 9 -108 -7 -85 -46 -294 -54 -287 -3 3 0
31 6 63 34 185 38 322 10 339 -7 5 -9 -4 -4 -27 15 -74 10 -133 -30 -317 -45
-211 -147 -531 -218 -687 -51 -110 -120 -251 -125 -255 -4 -3 -24 -26 -44 -52
-21 -25 -49 -54 -63 -63 -28 -18 -170 -44 -254 -46 -48 -1 -51 -2 -25 -10 53
-15 -162 0 -310 22 -148 21 -476 101 -585 142 -104 39 -107 40 -80 23 14 -9
72 -31 130 -50 301 -99 735 -173 955 -163 61 2 117 7 126 11 14 6 15 1 5 -43
-5 -28 -7 -53 -4 -57 4 -3 20 -3 37 1 49 10 136 98 189 189 52 88 83 155 59
124 -8 -10 -17 -15 -20 -11 -4 3 -7 -4 -7 -17 0 -13 -3 -21 -6 -17 -3 3 -18
-8 -31 -24 -27 -32 -83 -66 -83 -50 0 5 5 13 10 16 21 13 100 142 141 230 136
291 261 735 287 1017 l7 82 40 8 c22 5 44 13 49 18 10 10 -55 30 -101 30 l-31
0 15 -31z m-58 -458 c-6 -18 -14 -30 -17 -27 -2 3 1 19 8 36 7 17 14 29 16 27
2 -2 -1 -18 -7 -36z m-12 -63 c-3 -8 -6 -5 -6 6 -1 11 2 17 5 13 3 -3 4 -12 1
-19z m-210 -590 c-3 -8 -6 -5 -6 6 -1 11 2 17 5 13 3 -3 4 -12 1 -19z m-64
-123 c-3 -9 -8 -14 -10 -11 -3 3 -2 9 2 15 9 16 15 13 8 -4z m-33 -58 c0 -2
-17 -19 -37 -38 -34 -30 -35 -31 -13 -4 29 35 50 52 50 42z m-70 -115 c0 -4
-10 -13 -22 -21 -23 -14 -23 -14 -4 8 20 22 26 25 26 13z"/>
<path d="M1440 2351 c-40 -35 -51 -98 -22 -124 43 -39 136 -31 166 15 29 45
29 73 0 107 -23 28 -32 32 -70 30 -31 -2 -53 -11 -74 -28z"/>
<path d="M1355 2030 c-33 -13 -63 -53 -70 -92 -6 -33 -3 -41 24 -69 29 -29 36
-31 85 -27 54 4 67 12 99 58 25 36 21 73 -12 109 -23 25 -37 31 -68 30 -21 0
-47 -4 -58 -9z"/>
<path d="M2362 1743 c-15 -29 -45 -133 -40 -138 2 -2 16 32 30 75 25 77 29 99
10 63z"/>
<path d="M1180 1720 c8 -5 28 -10 43 -10 15 0 73 -11 129 -25 56 -14 103 -23
106 -21 7 8 -123 44 -183 51 -33 3 -71 8 -85 11 -19 4 -22 2 -10 -6z"/>
<path d="M909 1643 c-38 -3 -48 -8 -53 -26 -13 -49 72 -116 211 -166 130 -48
213 -63 358 -64 148 -2 215 12 245 51 25 32 25 57 -1 93 -26 37 -57 53 -150
78 -41 11 -83 23 -94 26 -11 4 13 -10 53 -29 40 -19 89 -38 108 -42 43 -8 87
-42 80 -61 -3 -8 -1 -11 4 -8 15 9 12 -2 -7 -31 -12 -19 -18 -22 -25 -12 -8
10 -9 9 -5 -4 8 -24 -4 -30 -19 -10 -9 11 -13 13 -14 4 0 -7 -4 -11 -8 -8 -5
3 -44 -4 -88 -15 -53 -13 -97 -18 -134 -15 -30 3 -68 5 -83 6 -16 0 -26 4 -22
10 3 5 0 7 -9 4 -44 -17 -274 79 -348 147 -48 43 -51 39 38 39 15 0 65 -15
113 -34 123 -49 218 -66 371 -66 93 0 141 -4 167 -15 56 -24 53 -17 -7 14 -53
28 -58 29 -175 24 -168 -7 -294 19 -400 82 -31 19 -58 34 -59 33 0 -1 -22 -3
-47 -5z"/>
<path d="M2380 1629 c19 -6 38 -15 41 -21 4 -7 9 -6 14 2 10 15 7 17 -45 24
-44 5 -44 5 -10 -5z"/>
<path d="M2679 1619 c-6 -12 -7 -19 -2 -16 5 3 14 2 21 -2 11 -6 6 -42 -14
-101 -10 -27 -27 19 -20 53 4 23 3 28 -4 17 -13 -20 -13 -95 0 -142 10 -35 47
-74 59 -62 3 3 1 8 -5 12 -16 10 -47 73 -39 80 3 3 18 8 33 10 43 5 59 49 22
59 -26 7 -26 43 -1 74 18 22 21 23 36 8 14 -14 15 -21 5 -39 -18 -34 -5 -35
20 -1 13 19 17 31 9 31 -6 0 -17 8 -24 17 -11 15 -17 15 -40 5 -27 -13 -50 -8
-40 9 4 5 4 9 1 9 -3 0 -10 -10 -17 -21z"/>
<path d="M534 1475 c3 -113 20 -171 60 -204 8 -7 1 13 -16 45 -27 49 -32 72
-39 163 l-7 106 2 -110z"/>
<path d="M560 1266 c14 -15 39 -37 55 -49 36 -24 26 -14 -35 39 -30 25 -37 29
-20 10z"/>
<path d="M660 1224 c0 -24 343 -128 573 -174 128 -25 177 -23 62 4 -44 10 -96
22 -115 26 -19 5 -62 14 -95 21 -33 7 -65 16 -72 21 -6 5 -22 11 -35 12 -13 2
-30 6 -38 9 -18 6 -128 36 -152 42 -10 2 -28 11 -40 19 -27 19 -41 21 -33 4 4
-7 1 -6 -7 2 -11 13 -48 24 -48 14z"/>
<path d="M815 1103 c-5 -5 -10 -22 -10 -40 0 -30 4 -33 55 -51 118 -42 245
-61 277 -43 17 10 17 10 -2 12 -35 2 -39 4 -73 22 -19 11 -31 24 -29 31 4 9
-24 22 -86 41 -123 37 -121 36 -132 28z"/>
<path d="M1058 1023 c6 -2 18 -2 25 0 6 3 1 5 -13 5 -14 0 -19 -2 -12 -5z"/>
<path d="M1710 820 c8 -5 24 -10 34 -10 26 0 18 6 -19 14 -22 5 -26 4 -15 -4z"/>
<path d="M2813 583 c9 -2 25 -2 35 0 9 3 1 5 -18 5 -19 0 -27 -2 -17 -5z"/>
<path d="M770 450 c8 -5 26 -10 40 -10 20 0 22 2 10 10 -8 5 -26 10 -40 10
-20 0 -22 -2 -10 -10z"/>
<path d="M968 443 c6 -2 18 -2 25 0 6 3 1 5 -13 5 -14 0 -19 -2 -12 -5z"/>
</g>
</svg>
